<?xml version="1.0" standalone="no"?>
<!DOCTYPE svg PUBLIC "-//W3C//DTD SVG 1.1//EN" "http://www.w3.org/Graphics/SVG/1.1/DTD/svg11.dtd">
<svg version="1.1" xmlns="http://www.w3.org/2000/svg" viewBox="0 0 970 661.1111111111111" width="2910" height="1983.3333333333333"><!-- svg-source:excalidraw --><metadata></metadata><defs><style class="style-fonts">
      </style></defs><rect x="0" y="0" width="970" height="661.1111111111111" fill="#ffffff"></rect><g stroke-linecap="round"><g transform="translate(10 310) rotate(0 475 0.41296238411129593)"><path d="M0 0 C190.35 -0.38, 379.88 -0.3, 950 0 M0 0 C258.47 1.19, 516.7 1.68, 950 0" stroke="#ced4da" stroke-width="1" fill="none"></path></g></g><mask></mask><g stroke-linecap="round"><g transform="translate(485 10) rotate(0 -0.7813071998513124 300)"><path d="M0 0 C-1.65 120.39, -2.12 240.47, 0 600 M0 0 C-2 162.88, -2.17 326.57, 0 600" stroke="#ced4da" stroke-width="1" fill="none"></path></g></g><mask></mask><g transform="translate(120 60) rotate(0 125 15)"><text x="125" y="21.48046875" font-family="Helvetica, sans-serif, Segoe UI Emoji" font-size="24px" fill="#212529" text-anchor="middle" style="white-space: pre;" direction="ltr" dominant-baseline="alphabetic">SQL incompatibility rate</text></g><g transform="translate(100 130) rotate(0 50 30)"><text x="50" y="45.12109375" font-family="Helvetica, sans-serif, Segoe UI Emoji" font-size="56px" fill="#6c757d" text-anchor="middle" style="white-space: pre;" direction="ltr" dominant-baseline="alphabetic">36%</text></g><g transform="translate(290 130) rotate(0 50 30)"><text x="50" y="45.12109375" font-family="Helvetica, sans-serif, Segoe UI Emoji" font-size="56px" fill="#1d7b73" text-anchor="middle" style="white-space: pre;" direction="ltr" dominant-baseline="alphabetic">&lt;8%</text></g><g transform="translate(80 230) rotate(0 160 10)"><text x="160" y="15.400390625" font-family="Helvetica, sans-serif, Segoe UI Emoji" font-size="20px" fill="#212529" text-anchor="middle" style="white-space: pre;" direction="ltr" dominant-baseline="alphabetic">After AST validator + staged retry</text></g><g transform="translate(610 60) rotate(0 125 15)"><text x="125" y="21.48046875" font-family="Helvetica, sans-serif, Segoe UI Emoji" font-size="24px" fill="#212529" text-anchor="middle" style="white-space: pre;" direction="ltr" dominant-baseline="alphabetic">Per-turn input tokens</text></g><g transform="translate(540 130) rotate(0 75 30)"><text x="75" y="45.12109375" font-family="Helvetica, sans-serif, Segoe UI Emoji" font-size="56px" fill="#6c757d" text-anchor="middle" style="white-space: pre;" direction="ltr" dominant-baseline="alphabetic">~3,500</text></g><g transform="translate(780 130) rotate(0 75 30)"><text x="75" y="45.12109375" font-family="Helvetica, sans-serif, Segoe UI Emoji" font-size="56px" fill="#1d7b73" text-anchor="middle" style="white-space: pre;" direction="ltr" dominant-baseline="alphabetic">&lt;1,500</text></g><g transform="translate(580 230) rotate(0 160 10)"><text x="160" y="15.400390625" font-family="Helvetica, sans-serif, Segoe UI Emoji" font-size="20px" fill="#212529" text-anchor="middle" style="white-space: pre;" direction="ltr" dominant-baseline="alphabetic">After deterministic tool routing</text></g><g transform="translate(40 360) rotate(0 200 15)"><text x="200" y="20.9404296875" font-family="Helvetica, sans-serif, Segoe UI Emoji" font-size="22px" fill="#212529" text-anchor="middle" style="white-space: pre;" direction="ltr" dominant-baseline="alphabetic">Dashboard generation latency (30 vizlets)</text></g><g transform="translate(440 330) rotate(0 15 10)"><text x="30" y="14.3203125" font-family="Helvetica, sans-serif, Segoe UI Emoji" font-size="16px" fill="#adb5bd" text-anchor="end" style="white-space: pre;" direction="ltr" dominant-baseline="alphabetic">§4</text></g><g transform="translate(60 430) rotate(0 75 30)"><text x="75" y="45.12109375" font-family="Helvetica, sans-serif, Segoe UI Emoji" font-size="56px" fill="#6c757d" text-anchor="middle" style="white-space: pre;" direction="ltr" dominant-baseline="alphabetic">50-55s</text></g><g transform="translate(310 430) rotate(0 75 30)"><text x="75" y="45.12109375" font-family="Helvetica, sans-serif, Segoe UI Emoji" font-size="56px" fill="#1d7b73" text-anchor="middle" style="white-space: pre;" direction="ltr" dominant-baseline="alphabetic">15-20s</text></g><g transform="translate(40 530) rotate(0 190 10)"><text x="190" y="15.400390625" font-family="Helvetica, sans-serif, Segoe UI Emoji" font-size="20px" fill="#212529" text-anchor="middle" style="white-space: pre;" direction="ltr" dominant-baseline="alphabetic">AI-generated config, not AI-generated code</text></g><g transform="translate(580 360) rotate(0 150 15)"><text x="150" y="21.48046875" font-family="Helvetica, sans-serif, Segoe UI Emoji" font-size="24px" fill="#212529" text-anchor="middle" style="white-space: pre;" direction="ltr" dominant-baseline="alphabetic">LLM 503s visible to users</text></g><g transform="translate(920 330) rotate(0 15 10)"><text x="30" y="14.3203125" font-family="Helvetica, sans-serif, Segoe UI Emoji" font-size="16px" fill="#adb5bd" text-anchor="end" style="white-space: pre;" direction="ltr" dominant-baseline="alphabetic">§5</text></g><g transform="translate(610 430) rotate(0 50 30)"><text x="50" y="45.12109375" font-family="Helvetica, sans-serif, Segoe UI Emoji" font-size="56px" fill="#6c757d" text-anchor="middle" style="white-space: pre;" direction="ltr" dominant-baseline="alphabetic">~7%</text></g><g transform="translate(790 430) rotate(0 50 30)"><text x="50" y="45.12109375" font-family="Helvetica, sans-serif, Segoe UI Emoji" font-size="56px" fill="#1d7b73" text-anchor="middle" style="white-space: pre;" direction="ltr" dominant-baseline="alphabetic">&lt;1%</text></g><g transform="translate(570 530) rotate(0 160 10)"><text x="160" y="15.400390625" font-family="Helvetica, sans-serif, Segoe UI Emoji" font-size="20px" fill="#212529" text-anchor="middle" style="white-space: pre;" direction="ltr" dominant-baseline="alphabetic">After system-level fallback chain</text></g><g transform="translate(126.240234375 628.8888888888889) rotate(0 333.759765625 11.111111111111086)"><text x="333.759765625" y="16.51150173611111" font-family="Helvetica, sans-serif, Segoe UI Emoji" font-size="20px" fill="#000000" text-anchor="middle" style="white-space: pre;" direction="ltr" dominant-baseline="alphabetic">Observed in our workload — the patterns generalize; the magnitudes won't.</text></g><g stroke-linecap="round"><g stroke-opacity="0.9" fill-opacity="0.9" transform="translate(215.80742465813285 156.43050552962666) rotate(2.154612743124679 28.411833364381025 -1.6895591898155828)"><path d="M-0.28 1.12 C2.95 0.52, 10.69 -3.37, 20.26 -4.18 C29.82 -4.99, 50.97 -4.02, 57.1 -3.76 M1.78 0.66 C5.31 0.27, 13.33 -2.3, 22.52 -2.91 C31.7 -3.51, 51.02 -3.21, 56.9 -2.96" stroke="#1e1e1e" stroke-width="2" fill="none"></path></g><g stroke-opacity="0.9" fill-opacity="0.9" transform="translate(215.80742465813285 156.43050552962666) rotate(2.154612743124679 28.411833364381025 -1.6895591898155828)"><path d="M40.36 2.59 C48.2 -0.71, 52.05 0.04, 56.9 -2.96 M40.36 2.59 C43.68 1.92, 48.18 -0.05, 56.9 -2.96" stroke="#1e1e1e" stroke-width="2" fill="none"></path></g><g stroke-opacity="0.9" fill-opacity="0.9" transform="translate(215.80742465813285 156.43050552962666) rotate(2.154612743124679 28.411833364381025 -1.6895591898155828)"><path d="M40.66 -9.34 C48.33 -8.17, 52.06 -2.95, 56.9 -2.96 M40.66 -9.34 C44.01 -7.43, 48.45 -6.81, 56.9 -2.96" stroke="#1e1e1e" stroke-width="2" fill="none"></path></g></g><mask></mask><g stroke-linecap="round"><g stroke-opacity="0.9" fill-opacity="0.9" transform="translate(707.1524178894001 155.93606963182546) rotate(2.154612743124679 28.014803955521927 -2.1648980193215266)"><path d="M-0.1 -0.02 C3.38 -0.81, 12.19 -3.64, 21.4 -4.18 C30.62 -4.72, 49.61 -3.42, 55.18 -3.25 M-1.61 -1.07 C1.7 -1.75, 10.73 -2.72, 20.61 -2.91 C30.48 -3.1, 52 -2.29, 57.64 -2.2" stroke="#1e1e1e" stroke-width="2" fill="none"></path></g><g stroke-opacity="0.9" fill-opacity="0.9" transform="translate(707.1524178894001 155.93606963182546) rotate(2.154612743124679 28.014803955521927 -2.1648980193215266)"><path d="M41.08 3.33 C46.71 1.86, 51.69 -1.67, 57.64 -2.2 M41.08 3.33 C45.64 2.37, 49.75 0.59, 57.64 -2.2" stroke="#1e1e1e" stroke-width="2" fill="none"></path></g><g stroke-opacity="0.9" fill-opacity="0.9" transform="translate(707.1524178894001 155.93606963182546) rotate(2.154612743124679 28.014803955521927 -2.1648980193215266)"><path d="M41.4 -8.6 C46.98 -5.98, 51.84 -5.41, 57.64 -2.2 M41.4 -8.6 C45.76 -6.48, 49.79 -5.18, 57.64 -2.2" stroke="#1e1e1e" stroke-width="2" fill="none"></path></g></g><mask></mask><g stroke-linecap="round"><g stroke-opacity="0.9" fill-opacity="0.9" transform="translate(723.6813485534625 456.2115878757886) rotate(2.154612743124679 27.65557423262817 -1.7799899465506428)"><path d="M0.93 -0.8 C4.42 -1.41, 11.47 -2.82, 20.54 -3.11 C29.61 -3.39, 49.27 -2.43, 55.36 -2.49 M-0.04 1.4 C3.89 0.37, 13.9 -4.53, 22.95 -4.93 C32 -5.34, 49.04 -1.4, 54.24 -1.03" stroke="#1e1e1e" stroke-width="2" fill="none"></path></g><g stroke-opacity="0.9" fill-opacity="0.9" transform="translate(723.6813485534625 456.2115878757886) rotate(2.154612743124679 27.65557423262817 -1.7799899465506428)"><path d="M37.15 2.49 C40.48 0.59, 46.97 -0.46, 54.24 -1.03 M37.15 2.49 C42.51 0.82, 47.57 -0.15, 54.24 -1.03" stroke="#1e1e1e" stroke-width="2" fill="none"></path></g><g stroke-opacity="0.9" fill-opacity="0.9" transform="translate(723.6813485534625 456.2115878757886) rotate(2.154612743124679 27.65557423262817 -1.7799899465506428)"><path d="M38.89 -9.32 C41.82 -8.1, 47.85 -6.03, 54.24 -1.03 M38.89 -9.32 C43.79 -7.2, 48.29 -4.36, 54.24 -1.03" stroke="#1e1e1e" stroke-width="2" fill="none"></path></g></g><mask></mask><g stroke-linecap="round"><g stroke-opacity="0.9" fill-opacity="0.9" transform="translate(230.56833363868998 455.29331395000736) rotate(2.154612743124679 28.42458466081837 -1.4080150028115384)"><path d="M-0.72 -0.83 C2.9 -1.45, 12.94 -3.75, 22.25 -4.11 C31.56 -4.46, 49.54 -3.18, 55.13 -2.95 M1.11 1.35 C4.61 0.93, 12.48 -2.28, 21.89 -2.8 C31.3 -3.31, 51.88 -1.94, 57.57 -1.74" stroke="#1e1e1e" stroke-width="2" fill="none"></path></g><g stroke-opacity="0.9" fill-opacity="0.9" transform="translate(230.56833363868998 455.29331395000736) rotate(2.154612743124679 28.42458466081837 -1.4080150028115384)"><path d="M40.89 3.42 C45.48 3.37, 51.83 -1.33, 57.57 -1.74 M40.89 3.42 C46.08 1.25, 50.76 -0.24, 57.57 -1.74" stroke="#1e1e1e" stroke-width="2" fill="none"></path></g><g stroke-opacity="0.9" fill-opacity="0.9" transform="translate(230.56833363868998 455.29331395000736) rotate(2.154612743124679 28.42458466081837 -1.4080150028115384)"><path d="M41.48 -8.5 C45.83 -4.43, 51.97 -5, 57.57 -1.74 M41.48 -8.5 C46.48 -7.29, 51 -5.4, 57.57 -1.74" stroke="#1e1e1e" stroke-width="2" fill="none"></path></g></g><mask></mask><g transform="translate(929.1726684570312 24.676771375868043) rotate(0 8.8984375 10)"><text x="17.796875" y="14.3203125" font-family="Helvetica, sans-serif, Segoe UI Emoji" font-size="16px" fill="#adb5bd" text-anchor="end" style="white-space: pre;" direction="ltr" dominant-baseline="alphabetic">§3</text></g><g transform="translate(455.43548583984375 24.676786634657105) rotate(0 8.8984375 10)"><text x="17.796875" y="14.3203125" font-family="Helvetica, sans-serif, Segoe UI Emoji" font-size="16px" fill="#adb5bd" text-anchor="end" style="white-space: pre;" direction="ltr" dominant-baseline="alphabetic">§1</text></g></svg>